<?xml version="1.0" encoding="UTF-8"?>
<svg width="800" height="600" viewBox="0 0 800 600" xmlns="http://www.w3.org/2000/svg">
  <!-- Sfondo -->
  <rect width="800" height="600" fill="#F3F4F6"/>
  
  <!-- Circuito principale -->
  <rect x="200" y="150" width="400" height="300" rx="20" fill="#1F2937"/>
  
  <!-- CPU -->
  <rect x="300" y="200" width="200" height="200" rx="10" fill="#374151"/>
  <circle cx="400" cy="300" r="50" fill="#3176FF" opacity="0.3"/>
  
  <!-- Circuiti -->
  <path d="M200 250 L 300 250" stroke="#6B7280" stroke-width="3"/>
  <path d="M500 250 L 600 250" stroke="#6B7280" stroke-width="3"/>
  <path d="M200 350 L 300 350" stroke="#6B7280" stroke-width="3"/>
  <path d="M500 350 L 600 350" stroke="#6B7280" stroke-width="3"/>
  
  <!-- Connettori -->
  <rect x="180" y="240" width="20" height="20" fill="#4B5563"/>
  <rect x="600" y="240" width="20" height="20" fill="#4B5563"/>
  <rect x="180" y="340" width="20" height="20" fill="#4B5563"/>
  <rect x="600" y="340" width="20" height="20" fill="#4B5563"/>
  
  <!-- Dettagli CPU -->
  <circle cx="400" cy="300" r="30" fill="#3176FF" opacity="0.5"/>
  <path d="M370 300 L 430 300 M 400 270 L 400 330" stroke="#3176FF" stroke-width="2"/>
  
  <!-- LED -->
  <circle cx="350" cy="250" r="5" fill="#10B981"/>
  <circle cx="450" cy="250" r="5" fill="#EF4444"/>
  <circle cx="350" cy="350" r="5" fill="#F59E0B"/>
  <circle cx="450" cy="350" r="5" fill="#10B981"/>
</svg> 