<svg width="400" height="300" viewBox="0 0 400 300" fill="none" xmlns="http://www.w3.org/2000/svg">
<defs>
    <linearGradient id="grad1" x1="0%" y1="0%" x2="100%" y2="100%">
        <stop offset="0%" style="stop-color:#0d6efd;stop-opacity:1" />
        <stop offset="100%" style="stop-color:#0b5ed7;stop-opacity:1" />
    </linearGradient>
</defs>
<!-- Background circle -->
<circle cx="200" cy="150" r="120" fill="url(#grad1)" opacity="0.1"/>
<!-- Rocket illustration -->
<g transform="translate(180, 100)">
    <!-- Rocket body -->
    <rect x="15" y="40" width="10" height="60" fill="#0d6efd" rx="5"/>
    <!-- Rocket tip -->
    <polygon points="20,40 15,20 25,20" fill="#e74c3c"/>
    <!-- Rocket fins -->
    <polygon points="15,90 10,110 15,100" fill="#6c757d"/>
    <polygon points="25,90 30,110 25,100" fill="#6c757d"/>
    <!-- Fire -->
    <ellipse cx="20" cy="105" rx="3" ry="8" fill="#ff6b35"/>
    <ellipse cx="20" cy="108" rx="2" ry="5" fill="#ffa726"/>
</g>
<!-- Innovation icons -->
<g transform="translate(100, 200)">
    <!-- Lightbulb -->
    <circle cx="20" cy="20" r="12" fill="#ffc107" opacity="0.3"/>
    <path d="M20,8 C24,8 27,12 27,16 C27,20 24,23 22,25 L18,25 C16,23 13,20 13,16 C13,12 16,8 20,8 Z" fill="#ffc107"/>
</g>
<!-- Gear icon -->
<g transform="translate(280, 80)">
    <circle cx="20" cy="20" r="15" fill="none" stroke="#6c757d" stroke-width="2" opacity="0.5"/>
    <circle cx="20" cy="20" r="8" fill="none" stroke="#6c757d" stroke-width="2"/>
    <g stroke="#6c757d" stroke-width="2" opacity="0.5">
        <line x1="20" y1="5" x2="20" y2="10"/>
        <line x1="20" y1="30" x2="20" y2="35"/>
        <line x1="5" y1="20" x2="10" y2="20"/>
        <line x1="30" y1="20" x2="35" y2="20"/>
    </g>
</g>
<!-- Success chart -->
<g transform="translate(300, 180)">
    <rect x="0" y="20" width="4" height="15" fill="#28a745"/>
    <rect x="6" y="15" width="4" height="20" fill="#28a745"/>
    <rect x="12" y="10" width="4" height="25" fill="#28a745"/>
    <rect x="18" y="5" width="4" height="30" fill="#28a745"/>
</g>
<!-- Floating elements -->
<circle cx="50" cy="50" r="3" fill="#0d6efd" opacity="0.6">
    <animate attributeName="cy" values="50;45;50" dur="3s" repeatCount="indefinite"/>
</circle>
<circle cx="350" cy="250" r="2" fill="#e74c3c" opacity="0.6">
    <animate attributeName="cy" values="250;245;250" dur="2s" repeatCount="indefinite"/>
</circle>
<circle cx="80" cy="180" r="2.5" fill="#28a745" opacity="0.6">
    <animate attributeName="cy" values="180;175;180" dur="2.5s" repeatCount="indefinite"/>
</circle>
</svg>
