<svg width="9420" height="3000" viewBox="0 0 9420 3000" fill="none" xmlns="http://www.w3.org/2000/svg">
<circle cx="1500" cy="1500" r="1500" fill="#FE1414"/>
<path d="M502 2124V2064L778 2040H800V2124H502ZM706 2124C708.667 2012 710 1899.33 710 1786C710 1672.67 710 1558.67 710 1444V1338C710 1226 710 1114 710 1002C710 890 708.667 778.667 706 668H892C889.333 778.667 887.333 890 886 1002C886 1114 886 1229.33 886 1348V1386C886 1527.33 886 1658 886 1778C887.333 1896.67 889.333 2012 892 2124H706ZM800 2124V2058H1068C1194.67 2058 1292.67 2030 1362 1974C1432.67 1918 1468 1836.67 1468 1730C1468 1620.67 1432.67 1538 1362 1482C1292.67 1424.67 1182 1396 1030 1396H800V1334H1010C1139.33 1334 1236 1306.67 1300 1252C1365.33 1196 1398 1117.33 1398 1016C1398 926.667 1370.67 857.333 1316 808C1261.33 758.667 1170 734 1042 734H800V668H1092C1202.67 668 1292.67 682.667 1362 712C1432.67 740 1484.67 780 1518 832C1552.67 884 1570 944.667 1570 1014C1570 1070 1554.67 1123.33 1524 1174C1494.67 1224.67 1446.67 1267.33 1380 1302C1314.67 1336.67 1228 1359.33 1120 1370L1130 1352C1252.67 1356 1352 1375.33 1428 1410C1504 1443.33 1559.33 1487.33 1594 1542C1630 1596.67 1648 1658.67 1648 1728C1648 1780 1637.33 1830 1616 1878C1596 1924.67 1563.33 1966.67 1518 2004C1474 2041.33 1416 2070.67 1344 2092C1272 2113.33 1184.67 2124 1082 2124H800ZM502 728V668H800V750H778L502 728ZM2333.75 2154C2245.75 2154 2163.75 2133.33 2087.75 2092C2013.08 2050.67 1952.42 1990 1905.75 1910C1859.08 1828.67 1835.75 1728 1835.75 1608C1835.75 1488 1859.75 1388 1907.75 1308C1955.75 1226.67 2017.75 1165.33 2093.75 1124C2169.75 1082.67 2249.75 1062 2333.75 1062C2420.42 1062 2501.75 1082.67 2577.75 1124C2653.75 1164 2715.08 1224.67 2761.75 1306C2809.75 1387.33 2833.75 1488 2833.75 1608C2833.75 1728 2810.42 1828.67 2763.75 1910C2717.08 1991.33 2655.75 2052.67 2579.75 2094C2505.08 2134 2423.08 2154 2333.75 2154ZM2333.75 2092C2433.75 2092 2511.75 2050.67 2567.75 1968C2625.08 1885.33 2653.75 1766 2653.75 1610C2653.75 1455.33 2625.08 1336 2567.75 1252C2511.75 1168 2433.75 1126 2333.75 1126C2235.08 1126 2157.08 1168 2099.75 1252C2042.42 1336 2013.75 1455.33 2013.75 1610C2013.75 1766 2042.42 1885.33 2099.75 1968C2157.08 2050.67 2235.08 2092 2333.75 2092ZM3373.16 2154C3309.16 2154 3251.16 2146.67 3199.16 2132C3147.16 2118.67 3093.82 2099.33 3039.16 2074V1836H3127.16L3175.16 2088L3101.16 2084V2012C3138.49 2037.33 3177.82 2056.67 3219.16 2070C3260.49 2083.33 3310.49 2090 3369.16 2090C3457.16 2090 3523.16 2072 3567.16 2036C3612.49 2000 3635.16 1954 3635.16 1898C3635.16 1848.67 3619.82 1808.67 3589.16 1778C3559.82 1746 3504.49 1717.33 3423.16 1692L3319.16 1654C3237.82 1624.67 3173.16 1587.33 3125.16 1542C3078.49 1495.33 3055.16 1434.67 3055.16 1360C3055.16 1276 3087.16 1205.33 3151.16 1148C3216.49 1090.67 3309.16 1062 3429.16 1062C3489.16 1062 3542.49 1069.33 3589.16 1084C3637.16 1098.67 3685.82 1121.33 3735.16 1152L3729.16 1366H3649.16L3601.16 1132L3663.16 1144V1208C3623.16 1180 3584.49 1160 3547.16 1148C3509.82 1134.67 3470.49 1128 3429.16 1128C3353.16 1128 3295.82 1144.67 3257.16 1178C3218.49 1211.33 3199.16 1254.67 3199.16 1308C3199.16 1356 3215.16 1395.33 3247.16 1426C3279.16 1455.33 3331.16 1482.67 3403.16 1508L3505.16 1544C3606.49 1578.67 3678.49 1620 3721.16 1668C3763.82 1716 3785.16 1774.67 3785.16 1844C3785.16 1901.33 3769.16 1954 3737.16 2002C3706.49 2048.67 3661.16 2086 3601.16 2114C3541.16 2140.67 3465.16 2154 3373.16 2154ZM4186.47 1166V1092H4556.47V1166H4186.47ZM4348.47 2154C4264.47 2154 4202.47 2132 4162.47 2088C4122.47 2044 4102.47 1977.33 4102.47 1888C4102.47 1856 4102.47 1827.33 4102.47 1802C4103.8 1776.67 4104.47 1746 4104.47 1710V1166H3904.47V1106L4146.47 1086L4106.47 1116L4166.47 780H4276.47L4268.47 1122V1146V1888C4268.47 1950.67 4279.8 1996 4302.47 2024C4326.47 2052 4360.47 2066 4404.47 2066C4433.8 2066 4459.8 2062 4482.47 2054C4505.14 2044.67 4529.8 2032 4556.47 2016L4586.47 2050C4558.47 2083.33 4525.14 2108.67 4486.47 2126C4447.8 2144.67 4401.8 2154 4348.47 2154ZM4990.84 2154C4910.84 2154 4844.84 2131.33 4792.84 2086C4740.84 2040.67 4714.84 1976.67 4714.84 1894C4714.84 1842 4726.18 1796 4748.84 1756C4771.51 1714.67 4808.84 1678 4860.84 1646C4914.18 1614 4984.84 1585.33 5072.84 1560C5128.84 1542.67 5187.51 1526 5248.84 1510C5310.18 1494 5367.51 1480 5420.84 1468V1518C5367.51 1531.33 5313.51 1546 5258.84 1562C5204.18 1576.67 5154.18 1592.67 5108.84 1610C5023.51 1640.67 4962.84 1677.33 4926.84 1720C4892.18 1762.67 4874.84 1812 4874.84 1868C4874.84 1929.33 4891.51 1976 4924.84 2008C4959.51 2040 5004.84 2056 5060.84 2056C5091.51 2056 5121.51 2050 5150.84 2038C5180.18 2026 5213.51 2005.33 5250.84 1976C5288.18 1946.67 5332.18 1906.67 5382.84 1856L5400.84 1950H5352.84C5311.51 1994 5272.18 2031.33 5234.84 2062C5198.84 2092.67 5161.51 2115.33 5122.84 2130C5084.18 2146 5040.18 2154 4990.84 2154ZM5524.84 2152C5464.84 2152 5419.51 2132 5388.84 2092C5359.51 2050.67 5342.84 1994.67 5338.84 1924V1918V1406C5338.84 1331.33 5330.84 1274 5314.84 1234C5298.84 1192.67 5274.18 1164 5240.84 1148C5207.51 1132 5164.18 1124 5110.84 1124C5072.18 1124 5033.51 1130 4994.84 1142C4956.18 1152.67 4914.84 1170 4870.84 1194L4956.84 1140L4924.84 1298C4919.51 1334 4908.18 1359.33 4890.84 1374C4874.84 1388.67 4854.18 1396 4828.84 1396C4780.84 1396 4751.51 1372 4740.84 1324C4760.84 1242.67 4806.84 1178.67 4878.84 1132C4950.84 1085.33 5042.84 1062 5154.84 1062C5270.84 1062 5356.84 1090 5412.84 1146C5470.18 1200.67 5498.84 1290 5498.84 1414V1908C5498.84 1970.67 5506.18 2013.33 5520.84 2036C5535.51 2057.33 5556.18 2068 5582.84 2068C5600.18 2068 5615.51 2064.67 5628.84 2058C5642.18 2050 5656.84 2037.33 5672.84 2020L5704.84 2050C5683.51 2084.67 5657.51 2110 5626.84 2126C5597.51 2143.33 5563.51 2152 5524.84 2152ZM5806.13 2124V2068L6028.13 2044H6110.13L6336.13 2068V2124H5806.13ZM5972.13 2124C5973.46 2092 5974.12 2048.67 5974.12 1994C5975.46 1939.33 5976.13 1882.67 5976.13 1824C5977.46 1764 5978.13 1711.33 5978.13 1666V1546C5978.13 1476.67 5977.46 1415.33 5976.13 1362C5976.13 1308.67 5974.79 1257.33 5972.13 1208L5796.13 1200V1148L6104.13 1068L6130.13 1084L6142.13 1366V1368V1666C6142.13 1711.33 6142.13 1764 6142.13 1824C6143.46 1882.67 6144.13 1939.33 6144.13 1994C6145.46 2048.67 6146.79 2092 6148.13 2124H5972.13ZM6140.13 1486L6098.13 1382H6134.13C6154.13 1316.67 6182.13 1260.67 6218.13 1214C6254.13 1166 6294.13 1128.67 6338.13 1102C6383.46 1075.33 6429.46 1062 6476.13 1062C6514.79 1062 6548.79 1070 6578.13 1086C6607.46 1100.67 6626.79 1122.67 6636.13 1152C6634.79 1188 6626.13 1216 6610.13 1236C6594.13 1256 6568.13 1266 6532.13 1266C6506.79 1266 6484.13 1260 6464.13 1248C6444.13 1234.67 6422.79 1215.33 6400.13 1190L6354.13 1146L6444.13 1150C6374.79 1168.67 6315.46 1205.33 6266.13 1260C6218.13 1313.33 6176.13 1388.67 6140.13 1486ZM6979.44 1166V1092H7349.44V1166H6979.44ZM7141.44 2154C7057.44 2154 6995.44 2132 6955.44 2088C6915.44 2044 6895.44 1977.33 6895.44 1888C6895.44 1856 6895.44 1827.33 6895.44 1802C6896.77 1776.67 6897.44 1746 6897.44 1710V1166H6697.44V1106L6939.44 1086L6899.44 1116L6959.44 780H7069.44L7061.44 1122V1146V1888C7061.44 1950.67 7072.77 1996 7095.44 2024C7119.44 2052 7153.44 2066 7197.44 2066C7226.77 2066 7252.77 2062 7275.44 2054C7298.1 2044.67 7322.77 2032 7349.44 2016L7379.44 2050C7351.44 2083.33 7318.1 2108.67 7279.44 2126C7240.77 2144.67 7194.77 2154 7141.44 2154ZM8007.86 2154C7910.53 2154 7823.19 2134 7745.86 2094C7668.53 2054 7607.86 1993.33 7563.86 1912C7519.86 1830.67 7497.86 1730 7497.86 1610C7497.86 1498 7520.53 1401.33 7565.86 1320C7612.53 1237.33 7673.19 1174 7747.86 1130C7822.53 1084.67 7903.86 1062 7991.86 1062C8078.53 1062 8152.53 1080.67 8213.86 1118C8276.53 1154 8323.86 1203.33 8355.86 1266C8389.19 1328.67 8405.86 1399.33 8405.86 1478C8405.86 1526 8401.19 1566 8391.86 1598H7575.86V1536H8155.86C8191.86 1536 8215.86 1526.67 8227.86 1508C8239.86 1489.33 8245.86 1460 8245.86 1420C8245.86 1334.67 8223.19 1264.67 8177.86 1210C8132.53 1154 8069.19 1126 7987.86 1126C7929.19 1126 7875.86 1144.67 7827.86 1182C7779.86 1218 7741.86 1270.67 7713.86 1340C7685.86 1408 7671.86 1490 7671.86 1586C7671.86 1694 7687.86 1782.67 7719.86 1852C7753.19 1921.33 7798.53 1972.67 7855.86 2006C7913.19 2038 7978.53 2054 8051.86 2054C8122.53 2054 8183.86 2042 8235.86 2018C8289.19 1992.67 8336.53 1956 8377.86 1908L8409.86 1936C8365.86 2002.67 8310.53 2056 8243.86 2096C8177.19 2134.67 8098.53 2154 8007.86 2154ZM8577.61 2124V2068L8799.61 2044H8881.61L9107.61 2068V2124H8577.61ZM8743.61 2124C8744.94 2092 8745.61 2048.67 8745.61 1994C8746.94 1939.33 8747.61 1882.67 8747.61 1824C8748.94 1764 8749.61 1711.33 8749.61 1666V1546C8749.61 1476.67 8748.94 1415.33 8747.61 1362C8747.61 1308.67 8746.28 1257.33 8743.61 1208L8567.61 1200V1148L8875.61 1068L8901.61 1084L8913.61 1366V1368V1666C8913.61 1711.33 8913.61 1764 8913.61 1824C8914.94 1882.67 8915.61 1939.33 8915.61 1994C8916.94 2048.67 8918.28 2092 8919.61 2124H8743.61ZM8911.61 1486L8869.61 1382H8905.61C8925.61 1316.67 8953.61 1260.67 8989.61 1214C9025.61 1166 9065.61 1128.67 9109.61 1102C9154.94 1075.33 9200.94 1062 9247.61 1062C9286.28 1062 9320.28 1070 9349.61 1086C9378.94 1100.67 9398.28 1122.67 9407.61 1152C9406.28 1188 9397.61 1216 9381.61 1236C9365.61 1256 9339.61 1266 9303.61 1266C9278.28 1266 9255.61 1260 9235.61 1248C9215.61 1234.67 9194.28 1215.33 9171.61 1190L9125.61 1146L9215.61 1150C9146.28 1168.67 9086.94 1205.33 9037.61 1260C8989.61 1313.33 8947.61 1388.67 8911.61 1486Z" fill="black"/>
</svg>
